ply
format ascii 1.0
comment Created by Blender 2.81 (sub 16) - www.blender.org, source file: 'hatchet.blend'
element vertex 178
property float x
property float y
property float z
property float nx
property float ny
property float nz
property float s
property float t
property float red
property float green
property float blue
element face 188
property list uchar uint vertex_indices
end_header
-2.222252 0.059595 0.281155 -0.604602 0.774743 0.184881 0.332853 0.001609 0.44074173333333333 0.3907417333333333 0.2907417333333333 
-0.421498 0.059595 0.300354 0.019929 0.963958 0.265236 0.343873 0.320571 0.3807166 0.33071659999999997 0.2307166 
-0.412068 0.059595 -0.143391 0.000000 0.967254 -0.253792 0.230029 0.323366 0.3804022666666667 0.33040226666666667 0.23040226666666666 
-2.222252 0.059595 -0.143391 -0.603534 0.775231 -0.186316 0.223904 0.002685 0.44074173333333333 0.3907417333333333 0.2907417333333333 
-0.412068 -0.197180 -0.143391 0.000000 -0.966857 -0.255196 0.042462 0.676640 0.3804022666666667 0.33040226666666667 0.23040226666666666 
-0.421498 -0.197180 0.300354 0.018891 -0.963744 0.266152 0.156319 0.679451 0.3807166 0.33071659999999997 0.2307166 
-2.222252 -0.197180 0.281155 -0.604663 -0.774407 0.186041 0.145297 0.998390 0.44074173333333333 0.3907417333333333 0.2907417333333333 
-2.222252 -0.197180 -0.143391 -0.603595 -0.774895 -0.187475 0.036336 0.997298 0.44074173333333333 0.3907417333333333 0.2907417333333333 
-0.412068 -0.006180 -0.260099 0.000000 0.504471 -0.863399 0.826275 0.321937 0.3804022666666667 0.33040226666666667 0.23040226666666666 
-0.412068 -0.130955 -0.260099 0.000000 -0.503220 -0.864132 0.788127 0.321937 0.3804022666666667 0.33040226666666667 0.23040226666666666 
-2.230998 -0.130955 -0.260099 -0.612384 -0.404401 -0.679250 0.788126 0.000000 0.70739901 0.67739901 0.65739901 
-2.230998 -0.006180 -0.260099 -0.612171 0.405438 -0.678823 0.826275 0.000000 0.70739901 0.67739901 0.65739901 
3.405207 -0.006180 -0.203164 0.818781 0.469802 -0.329905 0.934723 0.388743 0.25315976666666673 0.20315976666666666 0.10315976666666668 
3.405207 -0.006180 0.257990 0.841762 0.474563 0.257241 0.934723 0.470459 0.25315976666666673 0.20315976666666666 0.10315976666666668 
3.405207 -0.130955 0.257990 0.842311 -0.473495 0.257424 0.896575 0.470459 0.25315976666666673 0.20315976666666666 0.10315976666666668 
3.405207 -0.130955 -0.203164 0.819269 -0.468795 -0.330088 0.896575 0.388743 0.25315976666666673 0.20315976666666666 0.10315976666666668 
3.256322 -0.006180 0.368692 0.170232 0.486007 0.857173 0.788126 0.018426 0.25812260000000004 0.2081226 0.10812260000000001 
3.256322 -0.130955 0.368692 0.167394 -0.481429 0.860317 0.749978 0.018426 0.25812260000000004 0.2081226 0.10812260000000001 
3.358416 -0.130955 0.327393 0.554003 -0.474654 0.683889 0.749978 0.000000 0.25471946666666667 0.20471946666666666 0.10471946666666668 
3.358416 -0.006180 0.327393 0.550096 0.479324 0.683828 0.788126 0.000000 0.25471946666666667 0.20471946666666666 0.10471946666666668 
-2.230998 -0.006180 0.397863 -0.615558 0.405347 0.675802 0.884670 0.497718 0.4410332666666667 0.39103326666666666 0.2910332666666667 
-2.230998 -0.006180 -0.260099 -0.612171 0.405438 -0.678823 0.884670 0.614308 0.70739901 0.67739901 0.65739901 
-2.230998 -0.130955 -0.260099 -0.612384 -0.404401 -0.679250 0.846522 0.614308 0.70739901 0.67739901 0.65739901 
-2.230998 -0.130955 0.397863 -0.615772 -0.404309 0.676229 0.846522 0.497718 0.4410332666666667 0.39103326666666666 0.2910332666666667 
3.288498 0.059595 0.222323 0.253517 0.955412 0.151189 0.336402 0.978010 0.25705006666666663 0.20705006666666662 0.10705006666666664 
3.288498 0.059595 -0.156140 0.270516 0.956511 -0.108982 0.239279 0.978969 0.25705006666666663 0.20705006666666662 0.10705006666666664 
3.206652 0.059595 -0.241218 0.114475 0.956298 -0.268960 0.217169 0.964685 0.2597782666666667 0.20977826666666663 0.10977826666666665 
3.233611 0.059595 0.251984 0.072909 0.958037 0.277200 0.343828 0.968212 0.25887963333333336 0.20887963333333331 0.10887963333333334 
3.288498 -0.197180 -0.156140 0.272011 -0.956023 -0.109592 0.051714 0.021083 0.25705006666666663 0.20705006666666662 0.10705006666666664 
3.288498 -0.197180 0.222323 0.256783 -0.955809 0.142918 0.148847 0.022056 0.25705006666666663 0.20705006666666662 0.10705006666666664 
3.233611 -0.197180 0.251984 0.063112 -0.959716 0.273751 0.156274 0.031855 0.25887963333333336 0.20887963333333331 0.10887963333333334 
3.206652 -0.197180 -0.241218 0.115085 -0.955809 -0.270455 0.029601 0.035363 0.2597782666666667 0.20977826666666663 0.10977826666666665 
3.256322 -0.130955 -0.357927 0.346049 -0.467971 -0.813135 0.896575 0.361319 0.25812260000000004 0.2081226 0.10812260000000001 
3.256322 -0.006180 -0.357927 0.345866 0.468978 -0.812647 0.934723 0.361319 0.25812260000000004 0.2081226 0.10812260000000001 
2.928867 -0.006180 0.368692 -0.081759 0.492538 0.866421 0.788126 0.076381 0.2690377666666667 0.21903776666666666 0.11903776666666668 
2.928867 -0.130955 0.368692 -0.081851 -0.491348 0.867092 0.749978 0.076381 0.2690377666666667 0.21903776666666666 0.11903776666666668 
2.946510 0.059595 -0.241218 -0.042817 0.961547 -0.271187 0.216289 0.918600 0.2684496666666667 0.21844966666666665 0.11844966666666668 
2.939884 0.059595 0.251984 -0.025086 0.963683 0.265755 0.342834 0.916177 0.26867053333333335 0.2186705333333333 0.11867053333333333 
2.939884 -0.197180 0.251984 -0.025208 -0.963286 0.267220 0.155280 0.083886 0.26867053333333335 0.2186705333333333 0.11867053333333333 
2.946510 -0.197180 -0.241218 -0.043031 -0.961119 -0.272683 0.028721 0.081445 0.2684496666666667 0.21844966666666665 0.11844966666666668 
3.256322 -0.006180 -0.357927 0.345866 0.468978 -0.812647 0.826275 0.972050 0.25812260000000004 0.2081226 0.10812260000000001 
3.256322 -0.130955 -0.357927 0.346049 -0.467971 -0.813135 0.788127 0.972050 0.25812260000000004 0.2081226 0.10812260000000001 
2.928867 -0.130955 -0.357927 -0.135746 -0.484634 -0.864071 0.788127 0.914092 0.2690377666666667 0.21903776666666666 0.11903776666666668 
2.928867 -0.006180 -0.357927 -0.135655 0.485824 -0.863430 0.826275 0.914092 0.2690377666666667 0.21903776666666666 0.11903776666666668 
2.612699 -0.006180 0.308465 -0.060854 0.522813 0.850246 0.788126 0.131819 0.2795767 0.22957669999999997 0.1295767 
2.612698 -0.130955 0.308465 -0.060884 -0.521500 0.851039 0.749978 0.131819 0.2795767333333333 0.2295767333333333 0.12957673333333333 
2.564939 0.059595 -0.118096 -0.046022 0.971923 -0.230598 0.246594 0.850692 0.28116870000000005 0.23116869999999998 0.1311687 
2.621087 0.059595 0.191256 -0.016724 0.972076 0.234046 0.326171 0.859854 0.2792971 0.22929709999999998 0.1292971 
2.621087 -0.197180 0.191256 -0.016846 -0.971740 0.235359 0.138615 0.140202 0.2792971 0.22929709999999998 0.1292971 
2.564940 -0.197180 -0.118096 -0.046052 -0.971648 -0.231788 0.059029 0.149353 0.2811686666666667 0.23116866666666663 0.13116866666666666 
2.542511 -0.130955 -0.233323 -0.166478 -0.521134 -0.837062 0.788127 0.844647 0.2819163 0.23191629999999996 0.1319163 
2.542510 -0.006180 -0.233323 -0.166570 0.522599 -0.836116 0.826275 0.844647 0.2819163333333333 0.2319163333333333 0.13191633333333333 
1.554412 -0.006180 0.356477 0.003113 0.498886 0.866634 0.788126 0.319537 0.31485293333333336 0.2648529333333333 0.16485293333333334 
1.554412 -0.130955 0.356477 0.003265 -0.497574 0.867397 0.749978 0.319537 0.31485293333333336 0.2648529333333333 0.16485293333333334 
1.322958 0.059595 -0.015359 -0.000366 0.971007 -0.239021 0.268756 0.630409 0.3225680666666667 0.27256806666666666 0.1725680666666667 
1.553923 0.059595 0.239671 0.000946 0.965606 0.259896 0.334985 0.670679 0.31486923333333333 0.2648692333333333 0.1648692333333333 
1.553923 -0.197180 0.239670 0.001068 -0.965239 0.261238 0.147429 0.329366 0.31486923333333333 0.2648692333333333 0.1648692333333333 
1.322958 -0.197180 -0.015359 -0.000824 -0.970672 -0.240272 0.081194 0.369624 0.3225680666666667 0.27256806666666666 0.1725680666666667 
1.291707 -0.130955 -0.132473 0.012909 -0.515488 -0.856777 0.788127 0.622404 0.3236097666666667 0.27360976666666664 0.17360976666666667 
1.291707 -0.006180 -0.132473 0.013550 0.516648 -0.856044 0.826275 0.622404 0.3236097666666667 0.27360976666666664 0.17360976666666667 
0.294661 -0.006180 0.308465 0.043580 0.521744 0.851955 0.788126 0.542083 0.3568446333333334 0.30684463333333334 0.20684463333333333 
0.294661 -0.130955 0.308465 0.044374 -0.519974 0.852992 0.749978 0.542083 0.3568446333333334 0.30684463333333334 0.20684463333333333 
0.090053 0.059595 -0.143391 0.017579 0.963195 -0.268197 0.231728 0.412319 0.3636649 0.31366489999999997 0.2136649 
0.248279 0.059595 0.191407 0.017273 0.972289 0.233039 0.318181 0.439501 0.3583907 0.30839069999999996 0.2083907 
0.248279 -0.197180 0.191407 0.018220 -0.972228 0.233283 0.130624 0.560525 0.3583907 0.30839069999999996 0.2083907 
0.090053 -0.197180 -0.143391 0.018097 -0.962676 -0.269997 0.044162 0.587693 0.3636649 0.31366489999999997 0.2136649 
0.033354 -0.130955 -0.260099 0.040254 -0.492965 -0.869076 0.788127 0.400774 0.3655548666666667 0.31555486666666666 0.21555486666666668 
0.033354 -0.006180 -0.260099 0.040010 0.494156 -0.868435 0.826275 0.400774 0.3655548666666667 0.31555486666666666 0.21555486666666668 
-0.412068 -0.006180 0.417063 0.062716 0.494552 0.866848 0.788126 0.668103 0.3804022666666667 0.33040226666666667 0.23040226666666666 
-0.412068 -0.130955 0.417063 0.061769 -0.492782 0.867946 0.749978 0.668103 0.3804022666666667 0.33040226666666667 0.23040226666666666 
-2.230998 -0.006180 0.397863 -0.615558 0.405347 0.675802 0.788126 0.989864 0.4410332666666667 0.39103326666666666 0.2910332666666667 
-2.230998 -0.130955 0.397863 -0.615772 -0.404309 0.676229 0.749978 0.989864 0.4410332666666667 0.39103326666666666 0.2910332666666667 
3.358416 -0.006180 0.327393 0.550096 0.479324 0.683828 0.934723 0.482757 0.25471946666666667 0.20471946666666666 0.10471946666666668 
3.358416 -0.130955 0.327393 0.554003 -0.474654 0.683889 0.896575 0.482757 0.25471946666666667 0.20471946666666666 0.10471946666666668 
-2.222252 0.059595 0.281155 -0.604602 0.774743 0.184881 0.904780 0.518399 0.44074173333333333 0.3907417333333333 0.2907417333333333 
-2.222252 0.059595 -0.143391 -0.603534 0.775231 -0.186316 0.904780 0.593628 0.44074173333333333 0.3907417333333333 0.2907417333333333 
-2.230998 -0.006180 0.397863 -0.615558 0.405347 0.675802 0.364091 0.000000 0.4410332666666667 0.39103326666666666 0.2910332666666667 
-0.412068 -0.006180 0.417063 0.062716 0.494552 0.866848 0.375173 0.322182 0.3804022666666667 0.33040226666666667 0.23040226666666666 
0.294661 -0.006180 0.308465 0.043580 0.521744 0.851955 0.349695 0.447657 0.3568446333333334 0.30684463333333334 0.20684463333333333 
1.554412 -0.006180 0.356477 0.003113 0.498886 0.866634 0.366279 0.670706 0.31485293333333336 0.2648529333333333 0.16485293333333334 
2.612699 -0.006180 0.308465 -0.060854 0.522813 0.850246 0.357539 0.858307 0.2795767 0.22957669999999997 0.1295767 
2.928867 -0.006180 0.368692 -0.081759 0.492538 0.866421 0.374065 0.914165 0.2690377666666667 0.21903776666666666 0.11903776666666668 
3.256322 -0.006180 0.368692 0.170232 0.486007 0.857173 0.375173 0.972175 0.25812260000000004 0.2081226 0.10812260000000001 
3.358416 -0.006180 0.327393 0.550096 0.479324 0.683828 0.364920 0.990366 0.25471946666666667 0.20471946666666666 0.10471946666666668 
3.405207 -0.006180 0.257990 0.841762 0.474563 0.257241 0.347268 0.998831 0.25315976666666673 0.20315976666666666 0.10315976666666668 
3.405207 -0.006180 -0.203164 0.818781 0.469802 -0.329905 0.228924 1.000000 0.25315976666666673 0.20315976666666666 0.10315976666666668 
3.256322 -0.006180 -0.357927 0.345866 0.468978 -0.812647 0.188705 0.974017 0.25812260000000004 0.2081226 0.10812260000000001 
2.928867 -0.006180 -0.357927 -0.135655 0.485824 -0.863430 0.187597 0.916007 0.2690377666666667 0.21903776666666666 0.11903776666666668 
2.542510 -0.006180 -0.233323 -0.166570 0.522599 -0.836116 0.218266 0.847246 0.2819163333333333 0.2319163333333333 0.13191633333333333 
1.291707 -0.006180 -0.132473 0.013550 0.516648 -0.856044 0.239914 0.625406 0.3236097666666667 0.27360976666666664 0.17360976666666667 
0.033354 -0.006180 -0.260099 0.040010 0.494156 -0.868435 0.202904 0.402807 0.3655548666666667 0.31555486666666666 0.21555486666666668 
-0.412068 -0.006180 -0.260099 0.000000 0.504471 -0.863399 0.201397 0.323898 0.3804022666666667 0.33040226666666667 0.23040226666666666 
-2.230998 -0.006180 -0.260099 -0.612171 0.405438 -0.678823 0.195242 0.001667 0.70739901 0.67739901 0.65739901 
-2.230998 -0.130955 -0.260099 -0.612384 -0.404401 -0.679250 0.007646 0.998259 0.70739901 0.67739901 0.65739901 
-0.412068 -0.130955 -0.260099 0.000000 -0.503220 -0.864132 0.013801 0.676051 0.3804022666666667 0.33040226666666667 0.23040226666666666 
0.033354 -0.130955 -0.260099 0.040254 -0.492965 -0.869076 0.015309 0.597149 0.3655548666666667 0.31555486666666666 0.21555486666666668 
1.291707 -0.130955 -0.132473 0.012909 -0.515488 -0.856777 0.052323 0.374570 0.3236097666666667 0.27360976666666664 0.17360976666666667 
2.542511 -0.130955 -0.233323 -0.166478 -0.521134 -0.837062 0.030672 0.152742 0.2819163 0.23191629999999996 0.1319163 
2.928867 -0.130955 -0.357927 -0.135746 -0.484634 -0.864071 0.000000 0.083982 0.2690377666666667 0.21903776666666666 0.11903776666666668 
3.256322 -0.130955 -0.357927 0.346049 -0.467971 -0.813135 0.001108 0.025976 0.25812260000000004 0.2081226 0.10812260000000001 
3.405207 -0.130955 -0.203164 0.819269 -0.468795 -0.330088 0.041332 0.000000 0.25315976666666673 0.20315976666666666 0.10315976666666668 
3.405207 -0.130955 0.257990 0.842311 -0.473495 0.257424 0.159689 0.001185 0.25315976666666673 0.20315976666666666 0.10315976666666668 
3.358416 -0.130955 0.327393 0.554003 -0.474654 0.683889 0.177343 0.009652 0.25471946666666667 0.20471946666666666 0.10471946666666668 
3.256322 -0.130955 0.368692 0.167394 -0.481429 0.860317 0.187597 0.027843 0.25812260000000004 0.2081226 0.10812260000000001 
2.928867 -0.130955 0.368692 -0.081851 -0.491348 0.867092 0.186489 0.085849 0.2690377666666667 0.21903776666666666 0.11903776666666668 
2.612698 -0.130955 0.308465 -0.060884 -0.521500 0.851039 0.169961 0.141701 0.2795767333333333 0.2295767333333333 0.12957673333333333 
1.554412 -0.130955 0.356477 0.003265 -0.497574 0.867397 0.178702 0.329291 0.31485293333333336 0.2648529333333333 0.16485293333333334 
0.294661 -0.130955 0.308465 0.044374 -0.519974 0.852992 0.162116 0.552322 0.3568446333333334 0.30684463333333334 0.20684463333333333 
-0.412068 -0.130955 0.417063 0.061769 -0.492782 0.867946 0.187597 0.677792 0.3804022666666667 0.33040226666666667 0.23040226666666666 
-2.230998 -0.130955 0.397863 -0.615772 -0.404309 0.676229 0.176513 0.999950 0.4410332666666667 0.39103326666666666 0.2910332666666667 
-2.222252 -0.197180 -0.143391 -0.603595 -0.774895 -0.187475 0.826275 0.593628 0.44074173333333333 0.3907417333333333 0.2907417333333333 
-2.222252 -0.197180 0.281155 -0.604663 -0.774407 0.186041 0.826275 0.518399 0.44074173333333333 0.3907417333333333 0.2907417333333333 
-2.393936 -0.067575 -1.516899 -0.247536 0.000000 -0.968871 0.731325 0.012920 0.69483101 0.66483101 0.64483101 
-2.466442 -0.061430 -1.455098 -0.748436 0.598743 -0.285165 0.749978 0.023916 0.6954490200000001 0.6654490200000001 0.64544902 
-2.017336 -0.061430 -1.527456 -0.006439 0.996948 -0.077548 0.634481 0.011116 0.69472544 0.66472544 0.64472544 
-2.017336 -0.067575 -1.589257 -0.090121 0.000000 -0.995911 0.634476 0.000120 0.6941074300000001 0.66410743 0.64410743 
-2.393936 -0.067575 -1.516899 -0.247536 0.000000 -0.968871 0.393827 0.383655 0.69483101 0.66483101 0.64483101 
-2.017336 -0.067575 -1.589257 -0.090121 0.000000 -0.995911 0.490676 0.370853 0.6941074300000001 0.66410743 0.64410743 
-2.017337 -0.073721 -1.527456 -0.006470 -0.996948 -0.077578 0.490670 0.381848 0.69472544 0.66472544 0.64472544 
-2.466442 -0.073721 -1.455098 -0.748436 -0.598743 -0.285165 0.375173 0.394649 0.6954490200000001 0.6654490200000001 0.64544902 
-1.081644 -0.067575 -1.516899 0.250923 0.000000 -0.967986 0.869706 0.000000 0.69483101 0.66483101 0.64483101 
-1.009137 -0.061430 -1.455098 0.774682 0.590167 -0.226905 0.871286 0.008939 0.6954490200000001 0.6654490200000001 0.64544902 
-1.009137 -0.073721 -1.455098 0.774682 -0.590167 -0.226905 0.868125 0.008939 0.6954490200000001 0.6654490200000001 0.64544902 
-2.165695 -0.236438 0.411447 -0.666219 -0.735252 0.124454 1.000000 0.344063 0.7141144700000001 0.68411447 0.66411447 
-2.165695 -0.204241 0.497854 -0.598437 -0.457015 0.657979 0.991719 0.359248 0.71497854 0.68497854 0.66497854 
-2.165695 0.094372 -0.251658 -0.662191 0.745781 -0.072695 0.914916 0.227536 0.70748342 0.67748342 0.6574834199999999 
-2.165695 -0.229523 -0.251658 -0.655202 -0.751427 -0.077578 0.998221 0.227536 0.70748342 0.67748342 0.6574834199999999 
-1.395939 0.078469 -0.251658 0.683523 0.716483 -0.139409 0.907268 0.229956 0.70748342 0.67748342 0.6574834199999999 
-1.395939 0.101287 0.411447 0.667867 0.733970 0.123386 0.913137 0.346175 0.7141144700000001 0.68411447 0.66411447 
-1.395939 0.069090 0.497854 0.598437 0.457015 0.657979 0.904856 0.361319 0.71497854 0.68497854 0.66497854 
-1.395939 -0.204241 0.497854 0.598437 -0.457015 0.657979 0.834556 0.361319 0.71497854 0.68497854 0.66497854 
-2.191937 0.036610 -0.469123 -0.680593 0.732627 0.000702 0.929772 0.188724 0.70530877 0.67530877 0.65530877 
-2.191937 -0.171761 -0.469123 -0.682607 -0.730369 0.023896 0.983365 0.188724 0.70530877 0.67530877 0.65530877 
-1.395939 -0.213620 -0.251658 0.677053 -0.721824 -0.143345 0.832143 0.229956 0.70748342 0.67748342 0.6574834199999999 
-1.395939 -0.129841 -0.469123 0.713157 -0.700980 -0.001495 0.853691 0.191842 0.70530877 0.67530877 0.65530877 
-1.395939 -0.005310 -0.469123 0.710288 0.703421 -0.025788 0.885720 0.191842 0.70530877 0.67530877 0.65530877 
-2.381258 -0.035287 -1.016852 -0.707205 0.692740 0.141270 0.948264 0.088162 0.6998314800000001 0.66983148 0.64983148 
-2.381258 -0.099864 -1.016852 -0.712455 -0.688620 0.134739 0.964873 0.088162 0.6998314800000001 0.66983148 0.64983148 
-2.381258 -0.035287 -1.016852 -0.707205 0.692740 0.141270 0.728072 0.101710 0.6998314800000001 0.66983148 0.64983148 
-1.009137 -0.073721 -1.455098 0.774682 -0.590167 -0.226905 0.749978 0.394649 0.6954490200000001 0.6654490200000001 0.64544902 
-1.166417 -0.099864 -1.016852 0.676656 -0.703665 0.216712 0.709524 0.472443 0.6998314800000001 0.66983148 0.64983148 
-1.448735 -0.073721 -1.528134 0.006745 -0.996948 -0.077517 0.636909 0.381728 0.69471866 0.66471866 0.64471866 
-1.166417 -0.035287 -1.016852 0.671224 0.706961 0.222724 0.878010 0.089854 0.6998314800000001 0.66983148 0.64983148 
-1.166417 -0.099864 -1.016852 0.676656 -0.703665 0.216712 0.861401 0.089854 0.6998314800000001 0.66983148 0.64983148 
-2.466442 -0.061430 -1.455098 -0.748436 0.598743 -0.285165 0.954988 0.009210 0.6954490200000001 0.6654490200000001 0.64544902 
-2.393936 -0.067575 -1.516899 -0.247536 0.000000 -0.968871 0.956568 0.000000 0.69483101 0.66483101 0.64483101 
-2.466442 -0.073721 -1.455098 -0.748436 -0.598743 -0.285165 0.958149 0.009210 0.6954490200000001 0.6654490200000001 0.64544902 
-1.448735 -0.061430 -1.528134 0.006714 0.996948 -0.077517 0.488242 0.010996 0.69471866 0.66471866 0.64471866 
-1.448735 -0.067575 -1.589935 0.091861 0.000000 -0.995758 0.488237 0.000000 0.69410065 0.66410065 0.6441006499999999 
-1.448735 -0.067575 -1.589935 0.091861 0.000000 -0.995758 0.636915 0.370733 0.69410065 0.66410065 0.6441006499999999 
-1.395939 0.101287 0.411447 0.667867 0.733970 0.123386 0.474768 0.355776 0.7141144700000001 0.68411447 0.66411447 
-1.395939 0.078469 -0.251658 0.683523 0.716483 -0.139409 0.474800 0.238237 0.70748342 0.67748342 0.6574834199999999 
-2.165695 0.094372 -0.251658 -0.662191 0.745781 -0.072695 0.672807 0.238400 0.70748342 0.67748342 0.6574834199999999 
-2.165695 0.101287 0.411447 -0.668233 0.732810 0.128147 0.672742 0.355776 0.7141144700000001 0.68411447 0.66411447 
-1.395939 -0.005310 -0.469123 0.710288 0.703421 -0.025788 0.474653 0.198911 0.70530877 0.67530877 0.65530877 
-2.191937 0.036610 -0.469123 -0.680593 0.732627 0.000702 0.679463 0.199340 0.70530877 0.67530877 0.65530877 
-1.395939 0.069090 0.497854 0.598437 0.457015 0.657979 0.474692 0.370733 0.71497854 0.68497854 0.66497854 
-2.165695 0.069090 0.497854 -0.598437 0.457015 0.657979 0.672665 0.370733 0.71497854 0.68497854 0.66497854 
-1.166417 -0.035287 -1.016852 0.671224 0.706961 0.222724 0.415625 0.101710 0.6998314800000001 0.66983148 0.64983148 
-2.381258 -0.099864 -1.016852 -0.712455 -0.688620 0.134739 0.397078 0.472443 0.6998314800000001 0.66983148 0.64983148 
-2.165695 0.069090 0.497854 -0.598437 0.457015 0.657979 0.896575 0.497718 0.71497854 0.68497854 0.66497854 
-2.165695 -0.204241 0.497854 -0.598437 -0.457015 0.657979 0.826275 0.497718 0.71497854 0.68497854 0.66497854 
-1.395939 -0.204241 0.497854 0.598437 -0.457015 0.657979 0.826275 0.361319 0.71497854 0.68497854 0.66497854 
-1.395939 0.069090 0.497854 0.598437 0.457015 0.657979 0.896575 0.361319 0.71497854 0.68497854 0.66497854 
-2.165695 -0.236438 0.411447 -0.666219 -0.735252 0.124454 0.452400 0.726489 0.7141144700000001 0.68411447 0.66411447 
-2.165695 -0.229523 -0.251658 -0.655202 -0.751427 -0.077578 0.452337 0.609102 0.70748342 0.67748342 0.6574834199999999 
-1.395939 -0.213620 -0.251658 0.677053 -0.721824 -0.143345 0.650344 0.608945 0.70748342 0.67748342 0.6574834199999999 
-1.395939 -0.236438 0.411447 0.665853 -0.736381 0.119694 0.650373 0.726489 0.7141144700000001 0.68411447 0.66411447 
-2.191937 -0.171761 -0.469123 -0.682607 -0.730369 0.023896 0.445683 0.570058 0.70530877 0.67530877 0.65530877 
-1.395939 -0.129841 -0.469123 0.713157 -0.700980 -0.001495 0.650494 0.569645 0.70530877 0.67530877 0.65530877 
-2.165695 -0.204241 0.497854 -0.598437 -0.457015 0.657979 0.452477 0.741459 0.71497854 0.68497854 0.66497854 
-1.395939 -0.204241 0.497854 0.598437 -0.457015 0.657979 0.650451 0.741459 0.71497854 0.68497854 0.66497854 
-1.009137 -0.061430 -1.455098 0.774682 0.590167 -0.226905 0.375173 0.023916 0.6954490200000001 0.6654490200000001 0.64544902 
-1.081644 -0.067575 -1.516899 0.250923 0.000000 -0.967986 0.393816 0.012920 0.69483101 0.66483101 0.64483101 
-1.081644 -0.067575 -1.516899 0.250923 0.000000 -0.967986 0.731336 0.383655 0.69483101 0.66483101 0.64483101 
-2.165695 0.069090 0.497854 -0.598437 0.457015 0.657979 0.921418 0.359248 0.71497854 0.68497854 0.66497854 
-2.165695 0.101287 0.411447 -0.668233 0.732810 0.128147 0.913137 0.344063 0.7141144700000001 0.68411447 0.66411447 
-1.395939 -0.236438 0.411447 0.665853 -0.736381 0.119694 0.826275 0.346175 0.7141144700000001 0.68411447 0.66411447 
3 0 1 2
3 2 3 0
3 4 5 6
3 6 7 4
3 8 9 10
3 10 11 8
3 12 13 14
3 14 15 12
3 16 17 18
3 18 19 16
3 20 21 22
3 22 23 20
3 24 25 26
3 26 27 24
3 28 29 30
3 30 31 28
3 12 15 32
3 32 33 12
3 34 35 17
3 17 16 34
3 27 26 36
3 36 37 27
3 31 30 38
3 38 39 31
3 40 41 42
3 42 43 40
3 44 45 35
3 35 34 44
3 37 36 46
3 46 47 37
3 39 38 48
3 48 49 39
3 43 42 50
3 50 51 43
3 52 53 45
3 45 44 52
3 47 46 54
3 54 55 47
3 49 48 56
3 56 57 49
3 51 50 58
3 58 59 51
3 60 61 53
3 53 52 60
3 55 54 62
3 62 63 55
3 57 56 64
3 64 65 57
3 59 58 66
3 66 67 59
3 68 69 61
3 61 60 68
3 63 62 2
3 2 1 63
3 65 64 5
3 5 4 65
3 67 66 9
3 9 8 67
3 70 71 69
3 69 68 70
3 13 72 73
3 73 14 13
3 21 20 74
3 74 75 21
3 76 77 1
3 1 0 76
3 77 78 63
3 63 1 77
3 78 79 55
3 55 63 78
3 79 80 47
3 47 55 79
3 80 81 37
3 37 47 80
3 81 82 27
3 27 37 81
3 82 83 24
3 24 27 82
3 83 84 24
3 84 85 25
3 25 24 84
3 85 86 26
3 26 25 85
3 86 87 36
3 36 26 86
3 87 88 46
3 46 36 87
3 88 89 54
3 54 46 88
3 89 90 62
3 62 54 89
3 90 91 2
3 2 62 90
3 91 92 3
3 3 2 91
3 93 94 4
3 4 7 93
3 94 95 65
3 65 4 94
3 95 96 57
3 57 65 95
3 96 97 49
3 49 57 96
3 97 98 39
3 39 49 97
3 98 99 31
3 31 39 98
3 99 100 28
3 28 31 99
3 100 101 29
3 29 28 100
3 101 102 29
3 102 103 30
3 30 29 102
3 103 104 38
3 38 30 103
3 104 105 48
3 48 38 104
3 105 106 56
3 56 48 105
3 106 107 64
3 64 56 106
3 107 108 5
3 5 64 107
3 108 109 6
3 6 5 108
3 23 22 110
3 110 111 23
3 112 113 114
3 114 115 112
3 116 117 118
3 118 119 116
3 120 121 122
3 123 124 125
3 125 126 123
3 127 128 129
3 129 130 127
3 131 132 126
3 126 125 131
3 127 133 134
3 134 135 127
3 136 137 132
3 132 131 136
3 113 138 114
3 139 140 141
3 142 143 122
3 122 121 142
3 144 145 146
3 144 146 137
3 137 136 144
3 135 134 143
3 143 142 135
3 147 148 115
3 115 114 147
3 149 141 118
3 118 117 149
3 150 151 152
3 152 153 150
3 151 154 155
3 155 152 151
3 156 150 153
3 153 157 156
3 158 147 114
3 114 138 158
3 159 119 118
3 154 158 138
3 138 155 154
3 160 161 162
3 162 163 160
3 164 165 166
3 166 167 164
3 165 168 169
3 169 166 165
3 170 164 167
3 167 171 170
3 159 118 141
3 141 140 159
3 168 159 140
3 140 169 168
3 147 172 173
3 173 148 147
3 174 139 141
3 141 149 174
3 158 172 147
3 124 175 176
3 176 125 124
3 130 177 133
3 133 127 130
